<svg width="1036" height="272" viewBox="0 0 1036 272" fill="none" xmlns="http://www.w3.org/2000/svg">
<path d="M18.2601 68.0796V80.0161H117.333H216.406V68.0796V56.1431H117.333H18.2601V68.0796Z" fill="#FF8343"/>
<path d="M387.5 97.2841C387.5 130.922 387.262 132.568 382.75 132.568C378.237 132.568 378 134.215 378 160.795C378 187.376 378.237 189.023 382.75 189.023C387.262 189.023 387.5 190.669 387.5 229.011V269H411.25H435V165.5V62H411.25H387.5V97.2841Z" fill="#FF8343"/>
<path d="M444 166.5V271H468.5H493V166.5V62H468.5H444V166.5Z" fill="#FF8343"/>
<path d="M255.707 90.494V113.988H261.834C266.782 113.988 267.725 114.928 266.311 117.982C260.655 132.313 257.592 160.271 256.414 208.434L255 262H278.564H302.129L304.014 217.127L305.663 172.488L314.382 173.193L322.865 173.898L323.572 217.831L324.044 262H349.022H374L373.057 207.259C372.115 161.446 371.408 151.108 367.873 142.651C361.982 129.259 353.499 124.795 331.584 124.795C318.388 124.56 314.853 123.855 315.796 121.506C316.503 119.627 316.974 117.277 316.974 116.102C316.974 114.928 329.228 113.988 344.073 113.988H371.172V90.494V67H313.44H255.707V90.494Z" fill="#FF8343"/>
<path d="M9.70298 100.833C9.70298 112.267 10.1716 113.667 14.3895 113.667C19.0761 113.667 19.0761 113.9 15.3268 121.133C13.2179 125.333 10.8746 135.133 10.1716 143.3L9 158H44.149C76.4861 158 79.5324 157.533 80.4697 153.8C81.8756 148.667 99.4502 146.333 135.771 146.333C158.266 146.333 166.702 148.667 166.702 154.5C166.702 157.533 172.56 158 201.851 158H237V150.067C237 126.733 228.33 122.533 178.418 121.367C158.501 120.9 130.147 121.367 115.853 122.3C97.3412 123.7 89.3741 123.467 89.3741 121.833C89.3741 114.367 94.9979 113.667 164.827 113.667H234.657V100.833V88H122.18H9.70298V100.833Z" fill="#FF8343"/>
<path d="M0 180.364V195.727H46.9231C76.7192 195.727 93.8462 196.673 93.8462 198.091C93.8462 199.509 78.1269 200.455 51.6154 200.455H9.38461V221.727V243H90.3269H171.269V256V269H202.942H234.615V234.727V200.455H193.558C167.75 200.455 152.5 199.509 152.5 198.091C152.5 196.673 169.392 195.727 198.25 195.727H244V180.364V165H122H0V180.364Z" fill="#FF8343"/>
<path d="M957.51 166.641V271.603H987.769H1018.03V229.996V188.389H1026.54H1035.05V160.021V131.653H1026.54H1018.03V96.6658V61.6785H987.769H957.51V166.641Z" fill="#FF8343"/>
<path d="M688.484 166.848V271.81H718.744H749.003V232.095V192.379H758.459H767.915V162.12V131.861H758.459H749.003V96.8734V61.886H718.744H688.484V166.848Z" fill="#FF8343"/>
<path d="M791.084 90.0476V114.633H798.459H805.835L802.431 123.711C794.299 144.893 789.381 189.714 789.192 239.831V262.147H818.317H847.252L848.198 223.189C848.765 198.981 850.089 183.473 851.224 182.338C852.359 181.204 859.923 179.88 868.056 179.502C891.128 178.178 890.183 176.476 890.939 223.189L891.507 262.147H921.009H950.323L949.378 215.246C948.432 164.183 946.73 154.16 937.274 142.812C926.872 130.33 905.312 125.602 878.079 129.574C869.569 130.898 862.193 131.465 861.815 131.087C861.247 130.519 862.382 126.737 864.084 122.387L867.11 114.633H907.582H948.054V90.0476V65.4619H869.569H791.084V90.0476Z" fill="#FF8343"/>
<path d="M506 66.2475V99.2343H543.632C578.505 99.2343 581.066 99.4283 580.081 102.533C574.17 121.549 542.843 219.733 541.464 224.002L539.691 229.241H584.612H629.534L655.344 132.609C669.727 79.4422 681.351 35.3951 681.351 34.6189C681.351 33.8427 641.946 33.2606 593.676 33.2606H506V66.2475Z" fill="#FF5F00"/>
<path d="M957.51 166.641V271.603H987.769H1018.03V229.996V188.389H1026.54H1035.05V160.021V131.653H1026.54H1018.03V96.6658V61.6785H987.769H957.51V166.641Z" fill="#FF8343"/>
<path d="M688.484 166.848V271.81H718.744H749.003V232.095V192.379H758.459H767.915V162.12V131.861H758.459H749.003V96.8734V61.886H718.744H688.484V166.848Z" fill="#FF8343"/>
<path d="M791.084 90.0476V114.633H798.459H805.835L802.431 123.711C794.299 144.893 789.381 189.714 789.192 239.831V262.147H818.317H847.252L848.198 223.189C848.765 198.981 850.089 183.473 851.224 182.338C852.359 181.204 859.923 179.88 868.056 179.502C891.128 178.178 890.183 176.476 890.939 223.189L891.507 262.147H921.009H950.323L949.378 215.246C948.432 164.183 946.73 154.16 937.274 142.812C926.872 130.33 905.312 125.602 878.079 129.574C869.569 130.898 862.193 131.465 861.815 131.087C861.247 130.519 862.382 126.737 864.084 122.387L867.11 114.633H907.582H948.054V90.0476V65.4619H869.569H791.084V90.0476Z" fill="#FF8343"/>
<path d="M506 66.2475V99.2343H543.632C578.505 99.2343 581.066 99.4283 580.081 102.533C574.17 121.549 542.843 219.733 541.464 224.002L539.691 229.241H584.612H629.534L655.344 132.609C669.727 79.4422 681.351 35.3951 681.351 34.6189C681.351 33.8427 641.946 33.2606 593.676 33.2606H506V66.2475Z" fill="#FF5F00"/>
<path d="M957.51 166.641V271.603H987.769H1018.03V229.996V188.389H1026.54H1035.05V160.021V131.653H1026.54H1018.03V96.6658V61.6785H987.769H957.51V166.641Z" fill="#FF8343"/>
<path d="M688.484 166.848V271.81H718.744H749.003V232.095V192.379H758.459H767.915V162.12V131.861H758.459H749.003V96.8734V61.886H718.744H688.484V166.848Z" fill="#FF8343"/>
<path d="M791.084 90.0476V114.633H798.459H805.835L802.431 123.711C794.299 144.893 789.381 189.714 789.192 239.831V262.147H818.317H847.252L848.198 223.189C848.765 198.981 850.089 183.473 851.224 182.338C852.359 181.204 859.923 179.88 868.056 179.502C891.128 178.178 890.183 176.476 890.939 223.189L891.507 262.147H921.009H950.323L949.378 215.246C948.432 164.183 946.73 154.16 937.274 142.812C926.872 130.33 905.312 125.602 878.079 129.574C869.569 130.898 862.193 131.465 861.815 131.087C861.247 130.519 862.382 126.737 864.084 122.387L867.11 114.633H907.582H948.054V90.0476V65.4619H869.569H791.084V90.0476Z" fill="#FF8343"/>
<path d="M506 66.2475V99.2343H543.632C578.505 99.2343 581.066 99.4283 580.081 102.533C574.17 121.549 542.843 219.733 541.464 224.002L539.691 229.241H584.612H629.534L655.344 132.609C669.727 79.4422 681.351 35.3951 681.351 34.6189C681.351 33.8427 641.946 33.2606 593.676 33.2606H506V66.2475Z" fill="#FF5F00"/>
<path d="M628.512 0.210938L585.688 33.4708H628.512L628.512 0.210938Z" fill="#FF5F00"/>
<path d="M559.045 0.210938V33.4708H601.868L559.045 0.210938Z" fill="#FF5F00"/>
<path d="M595.224 0L571.322 33.2599H617.566L595.224 0Z" fill="#FF5F00"/>
<path d="M559.045 0V33.2599H605.289L559.045 0Z" fill="#FF5F00"/>
<path d="M506 91.9999C506 91.9999 570 84.4997 566 91.9999C562 99.5 560.791 106.166 557.5 115H506V91.9999Z" fill="#FF5F00"/>
</svg>
